<?xml version="1.0" standalone="no"?>
<!DOCTYPE svg PUBLIC "-//W3C//DTD SVG 20010904//EN"
 "http://www.w3.org/TR/2001/REC-SVG-20010904/DTD/svg10.dtd">
<svg version="1.0" xmlns="http://www.w3.org/2000/svg"
 width="2362.000000pt" height="590.000000pt" viewBox="0 0 2362.000000 590.000000"
 preserveAspectRatio="xMidYMid meet">
<metadata>
Created by potrace 1.16, written by Peter Selinger 2001-2019
</metadata>
<g transform="translate(0.000000,590.000000) scale(0.100000,-0.100000)"
fill="#000000" stroke="none">
<path d="M0 2950 l0 -2950 11805 0 11805 0 0 2135 c0 1174 0 2293 0 2485 0
193 0 559 0 815 l0 465 -11805 0 -11805 0 0 -2950z m11861 2499 c21 -21 21
-22 3 -32 -11 -5 -20 -11 -22 -12 -1 -1 4 -16 11 -34 18 -42 11 -95 -12 -85
-9 4 -35 13 -58 21 -51 18 -94 60 -74 73 8 4 11 15 8 25 -4 9 0 27 9 41 22 33
103 35 135 3z m382 -99 c7 -6 21 -17 32 -24 18 -13 18 -18 7 -48 -14 -41 -6
-95 17 -107 9 -5 19 -11 22 -13 4 -1 16 6 28 16 27 24 40 13 17 -13 -21 -23
-14 -41 15 -41 10 0 19 -5 19 -12 0 -6 14 1 30 17 35 33 39 55 10 55 -11 0
-21 5 -21 10 -5 39 -2 45 27 53 28 8 40 4 103 -37 39 -26 75 -54 79 -64 5 -9
13 -44 17 -76 6 -55 5 -61 -16 -77 -17 -13 -20 -21 -13 -31 6 -7 23 -67 39
-133 15 -66 32 -126 37 -132 17 -21 38 -15 66 17 15 17 32 30 38 30 13 0 20
-93 30 -365 6 -147 4 -195 -10 -261 -15 -78 -15 -86 5 -200 31 -178 33 -202
19 -245 -10 -30 -18 -39 -35 -39 -14 0 -25 -8 -28 -20 -5 -18 -14 -20 -80 -20
-103 0 -107 -2 -107 -61 0 -29 4 -49 11 -49 6 0 8 7 5 16 -5 12 -2 15 10 10
10 -4 18 0 21 13 6 24 51 41 79 31 19 -7 21 -21 31 -157 14 -194 -7 -352 -74
-548 -13 -38 -24 -72 -25 -75 0 -3 -2 -9 -4 -15 -1 -5 -7 -26 -13 -45 -13 -50
-114 -380 -144 -474 -14 -43 -40 -100 -57 -125 -53 -77 -141 -121 -175 -87
-28 27 -146 58 -260 66 -219 17 -400 72 -643 197 -69 35 -134 70 -146 78 -27
19 -36 19 -36 -1 0 -22 210 -230 280 -278 30 -20 100 -67 155 -104 55 -36 129
-94 163 -129 35 -35 71 -63 80 -63 20 0 86 39 200 118 63 43 111 68 145 76 53
12 91 11 83 -3 -5 -8 11 -202 19 -236 3 -14 35 -34 102 -64 54 -25 125 -58
157 -73 33 -15 63 -28 67 -28 5 0 54 -22 111 -49 173 -83 207 -91 392 -91 96
0 232 8 335 20 95 11 177 17 182 14 5 -3 9 -178 9 -389 l0 -384 -32 5 c-18 2
-154 18 -303 34 -148 17 -389 44 -535 60 -146 17 -344 39 -440 50 -96 11 -454
51 -795 89 -341 39 -825 93 -1075 121 -250 28 -470 53 -487 56 l-33 5 0 395
c0 311 3 395 12 392 7 -3 50 -54 96 -114 213 -281 260 -328 333 -335 52 -5 56
-1 63 54 8 63 17 93 66 222 21 55 50 132 65 172 14 39 33 77 42 85 11 9 46 13
103 13 72 0 92 3 109 19 23 20 27 51 12 88 -30 74 -123 388 -140 474 -12 55
-28 120 -36 144 -8 23 -15 44 -15 45 0 1 31 2 70 1 79 -1 88 -8 114 -76 37
-94 206 -282 267 -295 58 -13 53 9 -18 81 -106 107 -176 211 -200 297 -9 34
-14 99 -14 187 l0 135 -20 -42 c-16 -33 -30 -46 -64 -59 -60 -22 -85 -13 -137
48 -23 29 -80 92 -125 141 -52 55 -88 104 -99 133 -17 45 -17 47 2 61 10 8 35
13 54 11 33 -3 36 -6 58 -68 23 -64 73 -130 99 -130 21 0 15 17 -22 71 -39 57
-41 67 -22 93 18 25 47 14 69 -25 25 -44 59 -37 71 14 6 24 15 37 26 37 18 0
99 -97 118 -141 12 -28 43 -42 123 -55 44 -7 58 7 61 63 3 45 -11 70 -48 84
-30 11 -22 27 38 69 55 38 109 118 109 160 -1 14 -7 34 -15 44 -21 28 -19 36
10 36 14 0 52 13 85 30 54 27 59 33 62 66 3 37 8 42 63 66 21 9 31 21 33 40 3
23 -2 28 -35 37 -21 6 -69 11 -106 11 -59 0 -74 -4 -108 -27 -72 -52 -61 -81
25 -66 47 8 54 8 45 -4 -6 -7 -37 -21 -68 -31 -84 -26 -94 -34 -95 -76 -1 -42
-20 -47 -55 -15 -12 11 -29 18 -37 15 -21 -8 -9 -42 32 -90 19 -22 32 -42 29
-44 -6 -6 -145 30 -145 38 0 4 16 37 35 73 41 77 43 93 13 118 -25 23 -17 23
-69 -1 -56 -25 -69 -25 -69 0 0 28 -27 36 -49 16 -10 -9 -29 -16 -43 -16 -30
0 -38 20 -38 92 0 54 -7 61 -75 68 -55 5 -68 27 -27 45 51 22 1 83 -58 70 -36
-8 -40 8 -7 30 18 12 31 12 61 4 22 -6 58 -8 81 -4 39 5 45 3 66 -23 13 -16
36 -37 52 -47 24 -15 27 -22 21 -50 -4 -25 -1 -38 14 -53 23 -23 96 -36 147
-26 24 4 46 1 70 -10 20 -10 52 -16 72 -14 31 2 44 12 80 56 46 56 55 99 28
122 -21 17 -101 25 -109 11 -11 -17 -48 -13 -70 8 -12 11 -37 23 -56 28 -42
11 -43 25 -1 38 44 13 38 23 -19 31 -62 8 -64 25 -10 59 23 14 43 32 47 40 9
25 23 16 23 -15 0 -33 11 -38 30 -16 6 8 23 16 38 18 33 4 52 38 52 96 0 35 7
52 36 86 l35 42 70 -8 69 -8 31 35 c35 40 49 44 49 15 0 -31 38 -25 98 15 58
40 64 61 27 93 -30 26 -43 28 -51 7 -4 -8 -12 -15 -19 -15 -23 0 -28 -20 -11
-39 21 -23 20 -31 -4 -31 -11 0 -20 6 -20 14 0 24 -72 38 -85 16 -23 -38 -104
34 -124 110 -10 41 -11 57 -1 81 16 38 10 44 -34 29 -28 -9 -36 -17 -36 -36 0
-13 5 -24 10 -24 17 0 11 -30 -7 -37 -10 -3 -32 -17 -50 -30 -27 -20 -31 -28
-27 -56 3 -17 6 -50 7 -72 2 -36 5 -40 30 -43 32 -4 34 -13 6 -38 -19 -17 -21
-18 -30 -1 -11 19 -34 23 -44 7 -4 -6 -1 -17 5 -25 10 -12 10 -18 0 -29 -19
-23 -40 -8 -40 29 0 42 -36 105 -59 105 -10 0 -28 11 -41 25 -13 14 -32 25
-42 25 -17 0 -18 -1 -2 -25 9 -14 15 -27 13 -29 -4 -4 -90 -9 -116 -7 -6 1 -9
10 -6 21 4 14 -1 22 -18 29 -21 8 -18 10 20 10 41 1 95 25 128 57 7 7 50 26
95 44 93 35 126 60 126 96 0 51 157 194 215 194 16 0 19 -6 15 -36 -4 -30 -1
-37 19 -45 13 -5 23 -15 23 -23 0 -8 22 -21 54 -31 53 -17 56 -17 88 3 39 24
68 57 85 95 17 37 40 34 48 -5 12 -60 17 -69 41 -78 33 -13 51 -4 63 31 10 30
37 39 58 18 6 -6 23 -9 39 -7 22 2 34 13 49 42 14 27 30 42 50 48 37 9 49 -2
49 -47 0 -56 -37 -85 -113 -92 -45 -4 -64 -11 -69 -22 -3 -9 -16 -33 -29 -54
-24 -38 -26 -39 -76 -37 -69 3 -72 2 -57 -15 19 -23 3 -31 -20 -10 -11 10 -20
31 -20 47 0 37 -11 35 -49 -8 -25 -28 -35 -33 -46 -24 -8 7 -27 9 -49 4 -39
-7 -47 -21 -18 -31 9 -3 39 -26 65 -51 40 -36 53 -43 74 -37 15 3 32 14 39 23
12 16 14 16 27 -2 11 -15 21 -18 48 -12 26 5 31 4 21 -6 -16 -16 -15 -28 3
-28 9 0 35 18 58 41 l42 40 -35 -6 c-25 -5 -32 -4 -25 4 6 6 26 14 44 17 33 7
34 6 27 -21 -6 -24 -5 -27 13 -22 12 3 24 1 27 -4 11 -18 44 -10 44 11 0 11
-6 20 -14 20 -13 0 -26 20 -26 42 0 5 21 8 48 7 43 -3 47 -1 45 20 -4 33 13
17 21 -20 4 -20 1 -35 -9 -45 -12 -13 -12 -20 1 -56 9 -26 11 -45 5 -51 -15
-15 -32 3 -25 25 5 16 2 19 -17 16 -34 -4 -34 -28 -1 -63 28 -29 30 -30 113
-27 83 4 84 4 62 22 -28 22 -29 30 -3 30 26 0 26 30 1 37 -11 3 -21 15 -23 27
-2 17 -9 21 -35 19 -25 -2 -31 0 -27 12 4 8 0 23 -7 31 -12 15 -9 16 39 9 l52
-7 0 31 c0 17 -9 45 -20 63 -23 37 -25 66 -9 101 8 18 8 30 -1 47 -11 21 -10
26 14 43 14 10 26 25 26 32 0 19 -38 40 -97 55 -58 15 -83 5 -83 -32 0 -13 -5
-18 -14 -15 -7 3 -18 1 -24 -5 -6 -6 -15 -7 -22 -3 -8 5 -5 13 9 26 12 11 21
29 21 39 0 11 5 20 10 20 6 0 10 9 10 20 0 44 -37 13 -84 -70 l-37 -65 7 59
c4 36 14 68 25 79 18 20 17 37 -2 37 -22 0 -53 -43 -94 -130 -10 -19 -22 -46
-29 -60 -6 -14 -18 -25 -26 -25 -27 0 -20 30 15 70 49 55 47 75 -7 75 -71 0
-88 8 -78 36 11 27 -3 40 -37 36 -11 -2 -24 2 -28 7 -8 14 -45 14 -45 0 0 -5
-3 -8 -7 -6 -5 3 -6 30 -5 61 4 57 21 74 40 40 7 -13 16 -15 38 -9 39 10 118
14 177 7 42 -4 51 -9 71 -40 20 -32 26 -35 77 -38 39 -2 63 2 87 17 22 12 52
19 88 19 41 0 54 4 54 15 0 8 9 15 20 15 14 0 20 7 20 23 0 30 -27 55 -71 64
l-34 8 40 6 c65 10 105 10 118 -1z m-1210 -245 c15 -8 34 -12 42 -8 22 8 18
-5 -10 -39 -19 -22 -25 -41 -25 -77 0 -54 -46 -156 -70 -156 -9 0 -22 26 -37
70 -28 87 -28 101 -3 150 11 22 20 47 20 57 0 23 43 24 83 3z m3357 -764 c0
-4 47 -115 105 -245 58 -131 105 -241 105 -247 0 -5 -16 -9 -35 -9 -33 0 -36
3 -69 75 l-35 76 -106 -3 -106 -3 -31 -72 c-29 -70 -31 -73 -64 -73 -20 0 -34
5 -34 12 0 7 46 121 103 255 l102 242 33 1 c17 0 32 -4 32 -9z m690 -26 l0
-35 -85 0 -85 0 0 -220 0 -220 -40 0 -40 0 0 220 0 220 -85 0 -85 0 0 35 0 35
210 0 210 0 0 -35z m260 -75 l0 -110 140 0 140 0 0 110 0 110 35 0 35 0 0
-255 0 -255 -35 0 -35 0 0 110 0 110 -140 0 -140 0 0 -110 0 -110 -40 0 -40 0
0 255 0 255 40 0 40 0 0 -110z m868 73 l3 -32 -108 -3 -108 -3 -3 -72 -3 -73
106 0 105 0 0 -35 0 -35 -105 0 -106 0 3 -72 3 -73 108 -3 107 -3 0 -34 0 -35
-145 0 -145 0 0 255 0 256 143 -3 142 -3 3 -32z m422 -156 l165 -191 3 192 2
192 35 0 35 0 0 -255 0 -255 -32 0 c-30 1 -48 17 -198 191 l-165 191 -3 -191
-2 -191 -35 0 -35 0 0 255 0 255 33 -1 c29 0 47 -18 197 -192z m675 179 c32
-14 35 -19 35 -55 0 -23 -3 -41 -6 -41 -4 0 -22 9 -40 21 -47 28 -108 29 -136
1 -37 -36 -17 -68 87 -137 99 -66 119 -97 110 -168 -14 -106 -122 -150 -238
-99 -46 20 -47 22 -47 66 0 25 2 46 5 46 3 0 18 -11 33 -25 41 -38 94 -50 137
-29 72 34 54 77 -66 160 -83 58 -109 92 -109 144 0 78 59 130 147 130 29 0 69
-7 88 -14z m635 -169 c0 -200 3 -213 61 -243 40 -20 118 -20 157 0 55 29 62
55 62 251 l0 175 41 0 41 0 -4 -187 c-3 -160 -6 -193 -22 -223 -24 -44 -34
-53 -85 -80 -32 -16 -61 -22 -111 -22 -76 0 -124 17 -165 57 -49 50 -55 79
-55 275 l0 180 40 0 40 0 0 -183z m797 -9 l168 -192 3 192 2 192 35 0 35 0 0
-255 0 -255 -34 0 c-26 0 -40 7 -61 33 -15 17 -89 103 -164 189 l-136 157 -3
-189 -2 -190 -35 0 -35 0 0 255 0 255 29 0 c26 0 51 -24 198 -192z m543 -64
l0 -255 -37 3 -38 3 -2 244 c-1 135 0 248 3 253 3 4 21 8 40 8 l34 0 0 -256z
m246 244 c4 -6 37 -81 74 -165 36 -85 70 -154 75 -154 4 0 40 74 78 165 l71
166 33 0 c18 0 33 -5 33 -11 0 -24 -204 -499 -214 -499 -9 0 -190 406 -224
501 -5 13 66 11 74 -3z m832 -25 l3 -33 -110 0 -111 0 0 -75 0 -75 105 0 105
0 0 -35 0 -35 -105 0 -105 0 0 -75 0 -75 110 0 110 0 0 -35 0 -35 -145 0 -145
0 0 255 0 256 143 -3 142 -3 3 -32z m395 23 c51 -19 75 -42 88 -87 16 -52 3
-107 -33 -141 l-30 -28 35 -42 c33 -42 127 -184 127 -193 0 -3 -19 -5 -42 -5
-43 0 -43 1 -102 90 -62 96 -99 130 -140 130 l-26 0 0 -110 0 -110 -34 0 c-22
0 -36 6 -40 16 -3 9 -6 116 -6 239 0 123 3 230 6 239 8 21 141 22 197 2z m571
-1 c33 -14 36 -19 36 -55 0 -22 -2 -40 -5 -40 -2 0 -19 9 -37 20 -45 27 -118
27 -143 0 -32 -35 -11 -68 84 -130 90 -60 114 -92 114 -155 0 -117 -112 -172
-236 -117 -46 20 -47 22 -47 66 0 25 3 46 8 46 4 0 18 -11 30 -25 13 -14 41
-30 63 -36 46 -14 79 -3 104 35 15 23 15 27 0 53 -9 16 -51 51 -92 78 -84 54
-113 92 -113 145 0 47 18 80 59 107 41 28 119 31 175 8z m321 -240 l0 -250
-37 -3 -38 -3 0 256 0 256 38 -3 37 -3 0 -250z m605 220 l0 -35 -85 0 -85 0 0
-220 0 -220 -40 0 -40 0 0 220 0 220 -85 0 -85 0 0 35 0 35 210 0 210 0 0 -35z
m230 17 c8 -9 38 -47 65 -84 28 -37 52 -67 55 -68 3 0 34 38 70 85 63 83 65
85 107 85 24 0 43 -3 43 -7 0 -7 -111 -151 -161 -211 -17 -19 -19 -39 -19
-158 l0 -135 -37 3 c-21 2 -39 9 -39 16 -1 6 -2 67 -3 135 l-1 122 -90 113
c-50 62 -90 115 -90 117 0 3 19 5 43 5 28 0 47 -6 57 -18z m-19716 -17 c62
-26 132 -99 156 -161 56 -152 -1 -310 -139 -381 -55 -29 -72 -33 -140 -33 -67
0 -87 4 -139 31 -72 35 -114 83 -142 157 -64 171 31 358 205 403 44 12 154 3
199 -16z m2022 -10 c62 -30 98 -69 132 -143 21 -47 24 -64 20 -141 -5 -101
-29 -155 -99 -215 -126 -107 -354 -81 -442 52 -119 181 -34 420 168 473 55 15
164 2 221 -26z m1622 20 c141 -42 225 -185 201 -340 -24 -149 -140 -245 -296
-245 -186 0 -319 148 -298 333 21 192 203 308 393 252z m2914 -13 c186 -82
235 -325 96 -477 -106 -117 -299 -130 -417 -29 -68 59 -94 114 -99 209 -5 92
4 129 48 198 71 112 241 157 372 99z m-5982 -272 l0 -270 -95 0 -95 0 0 270 0
270 95 0 95 0 0 -270z m438 155 c-3 -110 1 -132 19 -101 4 8 35 43 68 78 33
35 74 81 90 101 l30 38 102 -3 102 -3 -105 -119 c-57 -66 -102 -126 -100 -132
3 -7 44 -63 93 -125 48 -61 96 -122 106 -135 l19 -24 -119 0 -118 1 -80 105
c-102 135 -101 134 -106 134 -2 0 -4 -53 -4 -117 l0 -118 -95 0 -95 0 -3 268
-3 267 101 0 102 0 -4 -115z m1680 -17 l134 -133 -4 133 -5 132 99 0 98 0 0
-270 0 -270 -83 0 -84 0 -128 130 c-71 72 -132 130 -135 130 -3 0 -4 -58 -2
-130 l4 -130 -96 0 -96 0 0 270 0 270 82 0 83 0 133 -132z m1593 35 c39 -54
75 -102 80 -107 4 -5 42 39 85 98 l78 106 88 0 88 0 0 -270 0 -270 -95 0 -95
0 0 142 0 142 -71 -97 -70 -97 -65 87 c-36 49 -69 92 -74 97 -4 4 -6 -55 -3
-133 l6 -141 -101 0 -101 0 -1 270 -1 270 91 0 90 0 71 -97z m849 -173 l0
-270 -95 0 -95 0 0 270 0 270 95 0 95 0 0 -270z m432 150 l3 -119 104 119 104
120 104 0 104 0 -106 -119 c-58 -66 -105 -124 -105 -131 0 -6 47 -71 105 -145
58 -74 105 -137 105 -140 0 -3 -51 -5 -112 -5 l-113 1 -95 122 -95 122 -3
-123 -3 -122 -94 0 -95 0 0 270 0 270 95 0 94 0 3 -120z m2076 -412 c10 -10
17 -10 32 0 20 12 53 4 62 -15 6 -15 67 -53 85 -53 20 -1 109 -97 99 -107 -4
-4 -26 13 -51 37 -40 40 -50 44 -103 48 -53 4 -61 2 -85 -22 -25 -25 -32 -25
-28 -2 4 19 -9 53 -29 76 -11 13 -20 29 -20 37 0 16 22 17 38 1z m4115 -508
c57 -21 113 -73 143 -130 24 -48 25 -151 1 -212 -52 -135 -241 -197 -383 -127
-152 77 -186 288 -64 410 77 77 194 100 303 59z m2002 2 l60 -18 3 -42 c3 -39
-5 -52 -22 -35 -17 17 -105 43 -146 43 -54 0 -115 -27 -152 -66 -70 -75 -64
-188 13 -260 64 -60 167 -69 260 -25 56 28 59 27 59 -15 0 -32 -4 -37 -45 -55
-147 -65 -320 -14 -388 115 -30 57 -30 174 1 232 62 120 206 171 357 126z
m610 7 c61 -17 127 -71 155 -126 32 -62 35 -178 6 -235 -47 -95 -131 -143
-251 -143 -68 1 -87 5 -130 28 -89 49 -135 129 -135 236 0 172 174 290 355
240z m1424 -5 c108 -32 175 -126 174 -244 -1 -144 -91 -241 -239 -256 -115
-12 -214 37 -271 133 -22 38 -26 57 -26 117 0 91 23 145 80 196 77 67 175 86
282 54z m1756 -7 c37 -13 40 -17 43 -55 l3 -42 -48 21 c-112 48 -209 34 -273
-38 -67 -76 -66 -175 1 -248 65 -70 173 -84 273 -35 23 11 45 20 49 20 4 0 7
-18 7 -39 0 -38 -2 -40 -47 -55 -133 -46 -253 -27 -333 54 -137 136 -81 366
102 426 51 17 164 12 223 -9z m460 9 c32 -14 35 -19 35 -55 0 -23 -1 -41 -3
-41 -1 0 -20 9 -42 20 -87 44 -166 7 -139 -65 4 -9 44 -41 90 -70 92 -60 114
-90 114 -158 0 -112 -110 -168 -231 -116 l-49 21 0 51 0 51 28 -26 c56 -53
121 -64 160 -28 47 44 26 83 -81 153 -90 59 -107 83 -107 151 0 99 117 157
225 112z m-5615 -31 l0 -35 -97 0 -98 0 0 -65 0 -65 98 0 97 0 0 -35 0 -35
-97 0 -98 0 3 -115 3 -115 -40 0 -41 0 0 250 0 250 135 0 135 0 0 -35z m800 0
l0 -35 -105 0 -105 0 0 -70 0 -69 102 -3 102 -3 3 -32 4 -33 -105 0 -106 0 0
-75 0 -75 110 0 110 0 0 -35 0 -35 -150 0 -150 0 0 243 c0 134 3 247 7 250 3
4 69 7 145 7 l138 0 0 -35z m1791 -153 l164 -188 3 188 2 188 35 0 35 0 0
-250 0 -250 -33 0 c-30 0 -46 14 -183 171 -82 95 -153 178 -157 185 -22 37
-27 3 -27 -171 l0 -185 -35 0 -35 0 0 250 0 250 33 0 c30 0 46 -15 198 -188z
m1275 171 c17 -27 136 -168 144 -171 4 -1 20 12 36 31 57 66 109 130 117 143
5 8 25 14 47 14 l40 0 0 -250 0 -250 -40 0 -40 0 -2 187 -3 187 -74 -92 c-85
-107 -71 -109 -170 17 l-66 85 -3 -192 -2 -192 -35 0 -35 0 0 250 0 250 38 0
c24 0 41 -6 48 -17z m684 -233 l0 -250 -40 0 -40 0 0 250 0 250 40 0 40 0 0
-250z m-10398 205 c64 -22 122 -75 155 -142 50 -103 35 -245 -34 -327 -64 -76
-138 -109 -244 -108 -82 1 -147 26 -202 80 -61 58 -80 104 -85 204 -4 76 -1
92 20 140 68 147 225 209 390 153z m-7764 -277 l-3 -273 -89 -3 c-65 -2 -92 1
-98 10 -4 7 -8 97 -8 200 l0 187 -84 3 c-128 5 -116 26 -116 -202 l0 -198 -95
-1 -95 -2 0 276 0 275 295 0 295 0 -2 -272z m759 4 c66 -147 119 -270 116
-274 -2 -5 -44 -8 -93 -8 l-88 0 -19 45 -18 45 -121 0 -121 0 -17 -45 -18 -45
-88 0 c-49 0 -91 3 -94 8 -2 4 23 66 55 137 33 72 87 192 121 268 l61 137 101
0 101 0 122 -268z m616 131 l138 -138 -7 138 -7 138 99 -3 99 -3 0 -270 0
-270 -79 -3 -80 -3 -139 138 -139 138 7 -138 7 -138 -98 3 -99 3 -2 264 c-1
146 0 268 3 273 3 4 40 8 82 8 l77 0 138 -137z m967 77 l0 -60 -105 0 -105 0
0 -45 0 -45 95 0 95 0 0 -60 0 -60 -94 0 c-58 0 -96 -4 -98 -11 -2 -5 -2 -28
0 -50 l4 -39 110 0 109 0 -3 -57 -3 -58 -205 0 -205 0 -3 260 c-1 143 0 265 3
272 3 10 52 13 205 13 l200 0 0 -60z m815 -215 l0 -270 -95 0 -95 0 -3 195
c-1 107 -6 197 -11 200 -5 3 -50 3 -101 0 l-91 -5 -2 -195 -2 -195 -95 0 -95
0 -3 260 c-1 143 0 265 3 272 3 11 66 13 297 11 l293 -3 0 -270z m430 0 l0
-270 -95 0 -95 0 -3 273 -2 273 97 -3 98 -3 0 -270z m735 210 l0 -64 -126 -3
-127 -3 47 -57 c25 -31 46 -62 46 -68 0 -6 -20 -43 -45 -81 -42 -65 -43 -69
-22 -70 12 0 68 0 125 1 l103 1 -3 -68 -3 -68 -264 -3 c-145 -2 -268 1 -273 6
-4 4 33 68 83 141 49 73 88 139 85 146 -2 7 -43 65 -90 128 -47 64 -86 118
-86 121 0 3 124 6 275 6 l275 0 0 -65z m710 -5 l0 -70 -85 0 -85 0 0 -205 0
-205 -95 0 -95 0 0 205 0 205 -85 0 -85 0 0 70 0 70 265 0 265 0 0 -70z m390
-30 l0 -100 105 0 105 0 0 100 0 100 95 0 95 0 0 -275 0 -275 -95 0 -95 0 0
105 0 106 -102 -3 -103 -3 -3 -102 -3 -103 -94 0 -95 0 0 275 0 275 95 0 95 0
0 -100z m886 -2 c42 -57 80 -104 84 -106 4 -2 43 45 86 103 l79 106 85 -3 85
-3 0 -270 0 -270 -95 0 -95 0 1 137 c0 75 -3 135 -7 133 -4 -3 -36 -43 -70
-90 -35 -47 -66 -85 -69 -85 -3 1 -34 42 -70 93 l-65 92 -3 -142 -3 -141 -94
0 -95 0 0 274 0 274 85 0 85 0 76 -102z m849 -173 l0 -270 -95 0 -95 0 -3 260
c-1 143 0 266 3 273 3 9 28 12 97 10 l93 -3 0 -270z m9133 -747 c30 -9 32 -13
32 -53 l0 -44 -46 24 c-55 29 -74 31 -114 10 -23 -12 -30 -23 -30 -44 0 -33
22 -54 116 -115 71 -44 94 -78 94 -136 0 -116 -116 -175 -237 -120 -42 18 -43
21 -43 65 l0 46 34 -26 c49 -38 91 -47 132 -30 41 17 53 54 30 90 -9 13 -50
47 -91 75 -88 60 -108 86 -108 145 0 107 96 154 231 113z m1945 -4 c23 -12 27
-21 27 -54 0 -22 -1 -40 -2 -40 -2 0 -25 11 -52 25 -55 28 -74 30 -111 13 -30
-13 -41 -47 -26 -76 6 -11 46 -42 89 -70 43 -28 86 -61 94 -74 41 -62 22 -161
-37 -198 -44 -27 -125 -27 -182 1 -41 20 -43 23 -43 65 0 24 3 44 7 44 4 0 18
-11 32 -24 30 -28 86 -45 120 -36 13 3 33 17 44 32 19 25 19 27 1 56 -9 17
-51 52 -91 79 -84 54 -113 93 -113 149 0 105 133 164 243 108z m425 11 l52
-16 0 -43 0 -43 -47 24 c-74 38 -143 20 -143 -36 0 -32 33 -65 110 -111 71
-41 93 -71 98 -134 3 -41 -1 -58 -20 -86 -13 -19 -35 -40 -48 -47 -37 -19
-119 -15 -167 7 -42 18 -43 20 -43 66 l0 47 23 -20 c53 -48 131 -59 167 -23
40 40 16 85 -72 141 -77 47 -107 78 -118 120 -20 73 24 141 101 159 49 12 50
11 107 -5z m-5818 -5 c0 -9 21 -57 112 -260 58 -129 98 -222 98 -230 0 -7 -46
-8 -71 -1 -3 0 -18 32 -35 71 l-29 70 -106 0 -107 0 -28 -67 c-15 -38 -29 -70
-31 -72 -2 -3 -19 -6 -38 -7 -24 -2 -35 1 -35 11 0 12 177 431 201 478 10 18
69 25 69 7z m610 -178 l165 -188 3 188 2 188 35 0 35 0 0 -255 0 -255 -29 0
c-26 0 -50 23 -188 182 -87 100 -162 183 -168 185 -6 2 -10 -62 -10 -179 l0
-183 -35 0 -35 0 -3 240 c-1 132 0 245 2 252 3 7 18 13 33 13 24 0 53 -28 193
-188z m800 156 c80 -40 123 -106 128 -198 7 -116 -33 -192 -129 -244 -48 -27
-62 -29 -190 -34 l-139 -5 0 258 0 257 138 -4 c125 -3 142 -5 192 -30z m872
22 c56 -16 88 -60 88 -122 0 -42 -5 -54 -29 -79 l-30 -29 34 -14 c46 -20 70
-60 70 -118 0 -41 -5 -52 -36 -84 -43 -43 -83 -53 -216 -54 l-93 0 0 255 0
255 88 0 c48 0 104 -5 124 -10z m388 -165 c0 -135 3 -183 15 -204 43 -83 216
-80 251 5 10 24 14 82 14 204 l0 170 41 0 41 0 -4 -187 c-3 -150 -7 -194 -20
-218 -38 -71 -104 -105 -201 -105 -76 0 -126 18 -167 62 -43 45 -50 83 -50
276 l0 172 40 0 40 0 0 -175z m1100 -80 l0 -255 -35 0 -35 0 0 255 0 255 35 0
35 0 0 -255z m316 221 c16 -18 56 -64 90 -102 34 -38 95 -109 137 -157 l77
-88 2 188 3 188 35 0 35 0 0 -250 0 -250 -30 -3 c-28 -3 -43 11 -195 186
l-165 189 -5 -186 -5 -186 -32 -3 -33 -3 0 255 0 256 29 0 c20 0 37 -10 57
-34z m894 -1 l0 -35 -105 0 -105 0 0 -75 0 -75 100 0 100 0 0 -35 0 -35 -100
0 -100 0 0 -75 0 -75 105 0 105 0 0 -35 0 -35 -145 0 -145 0 0 255 0 255 145
0 145 0 0 -35z m-13379 -47 c55 -23 108 -76 140 -138 19 -36 24 -61 24 -126 0
-70 -4 -88 -30 -139 -118 -231 -469 -197 -541 52 -30 103 -5 215 64 286 89 92
221 117 343 65z m2482 3 c130 -63 195 -211 150 -343 l-20 -58 25 0 c16 0 22
-4 19 -13 -3 -8 -8 -39 -12 -70 l-7 -57 -114 0 -114 0 0 74 c0 66 3 77 30 111
39 50 47 94 25 151 -33 87 -124 111 -188 51 -59 -55 -62 -149 -7 -202 28 -27
30 -33 30 -107 l0 -78 -114 0 -114 0 -11 63 c-14 81 -14 77 9 77 24 0 25 6 4
56 -38 91 5 239 89 308 84 67 224 84 320 37z m-3192 -264 c65 -143 119 -263
119 -268 0 -5 -42 -9 -94 -9 l-93 0 -18 45 -17 46 -121 -3 -122 -3 -15 -42
-14 -43 -93 0 c-62 0 -93 4 -93 11 0 6 53 128 118 270 l117 259 103 -2 104 -3
119 -258z m1299 181 c-1 -46 -1 -89 -1 -95 1 -10 28 -13 101 -13 l100 0 0 95
0 95 95 0 95 0 0 -270 0 -270 -95 0 -95 0 0 100 0 100 -100 0 -100 0 -1 -87
c-1 -49 -1 -94 0 -100 1 -10 -24 -13 -99 -13 l-100 0 0 270 0 270 101 0 100 0
-1 -82z m929 -48 c69 -72 129 -130 132 -130 4 0 4 59 1 130 l-5 130 97 0 96 0
0 -270 0 -270 -83 0 -84 0 -120 123 c-66 68 -126 128 -133 132 -11 7 -12 -16
-6 -123 l7 -132 -101 0 -100 0 0 270 0 270 86 0 86 0 127 -130z m1656 0 c70
-71 131 -130 133 -130 3 0 2 59 -1 130 l-6 130 99 0 100 0 0 -270 0 -270 -84
0 -85 0 -136 138 -135 137 6 -137 7 -138 -96 0 -97 0 0 270 0 270 83 0 83 0
129 -130z"/>
<path d="M12466 5133 c-3 -4 -6 -17 -6 -30 0 -18 -8 -27 -30 -34 -43 -15 -49
-46 -14 -76 16 -13 42 -29 57 -35 38 -14 16 -28 -31 -21 l-35 6 6 -35 c3 -20
2 -52 -3 -72 -11 -48 0 -53 66 -30 57 19 59 22 70 97 6 44 5 47 -15 47 -12 0
-19 5 -16 10 3 6 17 10 31 10 36 0 64 18 64 40 0 15 -7 20 -25 20 -19 0 -32
11 -55 49 -30 47 -52 66 -64 54z"/>
<path d="M12178 4873 c-23 -6 -23 -24 2 -66 12 -19 20 -39 19 -43 -4 -22 2
-34 17 -34 17 0 17 -3 2 -105 -3 -18 2 -20 42 -17 42 4 83 22 49 22 -7 0 -23
7 -34 16 -19 14 -19 15 10 38 17 13 28 26 25 28 -3 1 -14 8 -25 14 -14 8 -22
25 -26 60 -6 54 -17 84 -29 84 -5 0 -14 2 -22 4 -7 2 -21 2 -30 -1z"/>
<path d="M12510 4698 c-20 -19 -35 -22 -114 -23 -99 0 -119 -12 -56 -33 44
-15 53 -32 18 -32 -31 0 -68 -11 -68 -19 0 -4 6 -15 13 -25 12 -17 15 -17 67
0 35 11 67 30 87 52 35 38 48 37 56 -8 4 -20 15 -34 31 -40 13 -5 27 -14 31
-19 10 -17 82 -13 99 5 23 22 20 44 -5 44 -25 0 -79 52 -79 75 0 8 -5 15 -12
15 -6 0 -19 7 -28 15 -15 13 -19 13 -40 -7z"/>
<path d="M11855 4475 c-5 -2 -27 -6 -47 -10 -27 -4 -38 -11 -38 -23 0 -14 -8
-17 -45 -14 -45 4 -45 4 -45 -28 0 -19 7 -38 16 -45 13 -9 14 -16 5 -33 -8
-14 -9 -33 -3 -54 7 -27 13 -32 33 -30 36 4 56 39 64 109 5 51 11 67 32 83 14
11 36 20 49 20 27 0 32 15 8 24 -9 3 -16 6 -17 5 -1 0 -6 -2 -12 -4z"/>
<path d="M11574 4462 c-6 -4 -14 -27 -18 -52 -13 -83 -23 -90 -129 -90 -65 -1
-98 -5 -111 -15 -27 -20 -34 -19 -38 6 -2 14 -15 25 -40 34 -21 7 -40 10 -43
7 -11 -11 -4 -56 12 -74 15 -17 15 -20 0 -35 -13 -14 -20 -14 -46 -4 -49 21
-65 1 -31 -39 11 -13 20 -31 20 -41 0 -30 35 -42 78 -28 20 6 41 15 47 20 5 5
18 9 30 9 44 1 135 54 135 79 0 15 58 55 113 79 29 13 47 27 47 37 0 10 7 32
16 51 9 19 14 41 10 49 -6 16 -33 20 -52 7z"/>
<path d="M12045 3642 c-37 -2 -189 -26 -242 -37 -13 -3 -23 -10 -23 -15 0 -6
45 -10 111 -10 64 0 119 -5 132 -11 19 -11 15 -14 -48 -34 -39 -13 -81 -26
-95 -30 l-25 -7 23 17 c50 37 10 52 -82 31 -72 -17 -149 -52 -183 -85 -17 -17
-35 -21 -83 -21 -33 0 -60 -4 -60 -10 0 -5 30 -19 68 -30 51 -16 81 -20 127
-15 67 7 205 48 240 71 13 8 43 16 67 17 l43 2 -3 -95 -3 -94 23 19 c13 11 25
23 28 26 6 8 103 61 191 106 66 34 79 49 79 99 0 21 -39 63 -77 83 -25 13
-151 27 -208 23z"/>
<path d="M12097 2922 c-9 -10 -17 -23 -17 -29 0 -6 -19 -32 -42 -58 -24 -27
-43 -55 -43 -63 0 -28 30 -37 74 -22 62 20 158 8 224 -30 29 -16 67 -30 83
-30 30 0 204 69 204 81 0 18 -74 29 -191 29 -84 0 -149 5 -191 16 -35 9 -64
17 -66 18 -1 2 5 17 14 34 8 18 14 40 12 50 -5 24 -41 27 -61 4z"/>
<path d="M12000 2608 c-41 -51 -80 -118 -80 -137 0 -11 61 6 130 37 65 29 299
65 388 60 65 -5 72 -3 72 14 0 26 -26 33 -65 19 -25 -9 -39 -9 -61 0 -17 7
-76 11 -146 10 -112 -2 -117 -1 -142 24 -14 14 -32 25 -40 25 -9 0 -34 -23
-56 -52z"/>
<path d="M12075 2453 c-41 -6 -57 -23 -22 -23 22 0 27 -5 27 -24 0 -48 19 -52
169 -33 152 19 211 33 211 48 0 7 -20 9 -57 4 -38 -4 -81 -1 -123 9 -77 17
-164 26 -205 19z"/>
<path d="M20630 4205 l0 -75 44 0 c58 0 96 29 96 75 0 46 -38 75 -96 75 l-44
0 0 -75z"/>
<path d="M2591 4163 c-46 -23 -75 -89 -66 -149 9 -64 59 -114 112 -114 48 0
84 25 107 74 20 43 20 75 0 126 -17 41 -66 80 -100 80 -11 0 -34 -8 -53 -17z"/>
<path d="M4589 4164 c-40 -26 -59 -66 -59 -124 0 -86 43 -140 113 -140 112 0
158 173 67 255 -27 25 -90 29 -121 9z"/>
<path d="M6274 4170 c-12 -5 -34 -25 -49 -44 -22 -29 -27 -46 -26 -86 1 -88
45 -140 117 -140 30 0 44 7 76 40 33 35 38 47 38 86 0 105 -77 176 -156 144z"/>
<path d="M9154 4170 c-34 -14 -67 -68 -72 -120 -10 -110 91 -188 174 -134 35
24 54 65 54 119 0 105 -74 168 -156 135z"/>
<path d="M14335 3201 c-65 -29 -115 -104 -115 -171 0 -97 94 -189 193 -190
169 -1 260 206 142 321 -60 59 -145 74 -220 40z"/>
<path d="M16985 3213 c-68 -18 -126 -99 -127 -176 -1 -70 22 -120 72 -156 130
-94 310 -8 310 147 0 108 -69 181 -177 187 -32 2 -67 1 -78 -2z"/>
<path d="M18385 3201 c-154 -71 -150 -280 7 -346 106 -44 230 17 259 128 41
153 -120 285 -266 218z"/>
<path d="M9151 3082 c-116 -62 -82 -262 44 -262 73 0 115 51 115 140 0 62 -26
105 -76 126 -42 18 -43 18 -83 -4z"/>
<path d="M2046 2978 c-20 -51 -36 -96 -36 -100 0 -5 34 -8 75 -8 41 0 75 4 75
8 0 8 -69 184 -75 190 -2 2 -19 -39 -39 -90z"/>
<path d="M15542 1969 l3 -184 67 -3 c82 -4 137 10 178 44 43 37 63 80 63 139
1 68 -22 115 -73 150 -39 27 -51 30 -141 33 l-99 4 2 -183z"/>
<path d="M16540 2081 c0 -78 9 -86 75 -71 51 11 65 27 65 71 0 49 -27 69 -92
69 l-48 0 0 -69z"/>
<path d="M16540 1860 l0 -80 56 0 c68 0 122 23 130 57 15 60 -42 103 -136 103
l-50 0 0 -80z"/>
<path d="M5803 1998 c-80 -56 -83 -187 -7 -247 41 -32 113 -29 146 7 37 39 48
65 48 112 0 57 -31 114 -74 134 -46 22 -75 20 -113 -6z m147 -123 l0 -55 -85
0 -85 0 0 55 0 55 85 0 85 0 0 -55z"/>
<path d="M5021 1898 c-18 -46 -35 -89 -38 -95 -4 -10 14 -13 71 -13 42 0 76 3
76 8 0 14 -65 182 -71 182 -3 0 -21 -37 -38 -82z"/>
</g>
</svg>
