<?xml version="1.0" encoding="UTF-8"?>
<svg version="1.1" xmlns="http://www.w3.org/2000/svg" width="200" height="200">
<path d="M0 0 C66 0 132 0 200 0 C200 66 200 132 200 200 C134 200 68 200 0 200 C0 134 0 68 0 0 Z " fill="#7E1323" transform="translate(0,0)"/>
<path d="M0 0 C2.475 0.495 2.475 0.495 5 1 C5.625 3.375 5.625 3.375 6 6 C4 8 4 8 1.5 8.75 C-1.22558878 9.80821024 -1.22558878 9.80821024 -2.375 12.625 C-3.14508446 16.78345608 -2.71658017 19.84383502 -2 24 C-1.01 24.33 -0.02 24.66 1 25 C1.71727778 26.64551962 2.38325228 28.31422289 3 30 C4.88375675 32.32483785 4.88375675 32.32483785 8 32.1875 C10.92386603 32.20079609 10.92386603 32.20079609 13 31 C13.65772428 27.97065509 13.65772428 27.97065509 14 25 C12.02 23.68 10.04 22.36 8 21 C8.33 19.35 8.66 17.7 9 16 C10.65 15.67 12.3 15.34 14 15 C14.15855469 15.61488281 14.31710938 16.22976562 14.48046875 16.86328125 C15.93946287 22.18349762 15.93946287 22.18349762 19.6875 26.0625 C20.450625 26.371875 21.21375 26.68125 22 27 C21.7215625 28.546875 21.7215625 28.546875 21.4375 30.125 C21.02692918 33.76148442 21.221691 36.45437009 22 40 C22.99 40.33 23.98 40.66 25 41 C25.495 44.465 25.495 44.465 26 48 C27.00392976 41.474566 27.00392976 41.474566 26 35 C29 33 29 33 31.1875 33.375 C31.785625 33.58125 32.38375 33.7875 33 34 C33.495 36.475 33.495 36.475 34 39 C33.01 39.66 32.02 40.32 31 41 C29.79103537 45.87903584 29.54774572 51.15915241 31 56 C29.9275 56.721875 28.855 57.44375 27.75 58.1875 C22.00949749 62.32762 19.5970649 66.21247418 18 73 C17.01257813 73.09796875 16.02515625 73.1959375 15.0078125 73.296875 C13.72648437 73.44640625 12.44515625 73.5959375 11.125 73.75 C9.21074219 73.95882812 9.21074219 73.95882812 7.2578125 74.171875 C3.91099877 74.64400014 3.91099877 74.64400014 2.5546875 77.078125 C2.37164062 77.71234375 2.18859375 78.3465625 2 79 C-0.4375 78.625 -0.4375 78.625 -3 78 C-3.495 77.01 -3.495 77.01 -4 76 C-5.95695135 75.56852029 -5.95695135 75.56852029 -8.25 75.4375 C-9.46816406 75.31568359 -9.46816406 75.31568359 -10.7109375 75.19140625 C-12.42952207 75.04770208 -14.15204552 74.94991106 -15.875 74.875 C-18 74 -18 74 -19.4375 70.875 C-19.65921875 70.24980469 -19.8809375 69.62460938 -20.109375 68.98046875 C-21.45348246 65.99159821 -23.56514327 63.84922723 -25.79296875 61.48046875 C-27 60 -27 60 -27 58 C-28.65 57.67 -30.3 57.34 -32 57 C-32.33 55.35 -32.66 53.7 -33 52 C-31.515 51.505 -31.515 51.505 -30 51 C-30.14037521 49.18706911 -30.28744889 47.3746557 -30.4375 45.5625 C-30.51871094 44.55316406 -30.59992188 43.54382812 -30.68359375 42.50390625 C-30.73211468 40.06359221 -30.73211468 40.06359221 -32 39 C-32.04063832 37.33382885 -32.042721 35.66611905 -32 34 C-30.02 33.505 -30.02 33.505 -28 33 C-27.67 29.7 -27.34 26.4 -27 23 C-24.625 22.375 -24.625 22.375 -22 22 C-21.34 22.66 -20.68 23.32 -20 24 C-20.375 26.625 -20.375 26.625 -21 29 C-21.99 29.33 -22.98 29.66 -24 30 C-24.99467334 33.16486971 -25.20298932 34.55128676 -23.8125 37.625 C-21.89278618 40.36369891 -21.89278618 40.36369891 -18 43 C-18.33 37.72 -18.66 32.44 -19 27 C-17.68 26.34 -16.36 25.68 -15 25 C-12.50621132 21.25931697 -11.13906984 18.56555068 -10.0625 14.1875 C-9.711875 13.135625 -9.36125 12.08375 -9 11 C-6.5 9.75 -6.5 9.75 -4 9 C-2.00902154 6.01353231 -1.05875074 3.40312738 0 0 Z " fill="#EFDADB" transform="translate(98,9)"/>
<path d="M0 0 C1.67542976 0.28604898 3.34385343 0.61781233 5 1 C5.3403125 2.8871875 5.3403125 2.8871875 5.6875 4.8125 C6.50247194 8.17351568 6.742203 8.80358323 9.625 11 C10.40875 11.33 11.1925 11.66 12 12 C11.7215625 13.546875 11.7215625 13.546875 11.4375 15.125 C11.02692918 18.76148442 11.221691 21.45437009 12 25 C12.99 25.33 13.98 25.66 15 26 C15.495 29.465 15.495 29.465 16 33 C17.00392976 26.474566 17.00392976 26.474566 16 20 C19 18 19 18 21.1875 18.375 C21.785625 18.58125 22.38375 18.7875 23 19 C23.495 21.475 23.495 21.475 24 24 C23.01 24.66 22.02 25.32 21 26 C19.79103537 30.87903584 19.54774572 36.15915241 21 41 C19.9275 41.721875 18.855 42.44375 17.75 43.1875 C12.00949749 47.32762 9.5970649 51.21247418 8 58 C7.01257813 58.09796875 6.02515625 58.1959375 5.0078125 58.296875 C3.72648437 58.44640625 2.44515625 58.5959375 1.125 58.75 C-0.15117188 58.88921875 -1.42734375 59.0284375 -2.7421875 59.171875 C-6.08900123 59.64400014 -6.08900123 59.64400014 -7.4453125 62.078125 C-7.62835938 62.71234375 -7.81140625 63.3465625 -8 64 C-10.4375 63.625 -10.4375 63.625 -13 63 C-13.33 62.34 -13.66 61.68 -14 61 C-15.95695135 60.56852029 -15.95695135 60.56852029 -18.25 60.4375 C-21.56286973 60.14161371 -24.74945701 59.73399358 -28 59 C-28 57.02 -28 55.04 -28 53 C-27.34 53 -26.68 53 -26 53 C-26.28875 52.01 -26.5775 51.02 -26.875 50 C-27.28888889 47.30144444 -27.10543044 46.19746743 -25.80078125 43.75390625 C-24.2882775 41.69939147 -22.82765701 39.78138721 -21 38 C-20.34 38 -19.68 38 -19 38 C-19.15339844 38.56847656 -19.30679688 39.13695312 -19.46484375 39.72265625 C-19.98474671 42.29639074 -20.2538096 44.37868771 -20 47 C-18.43176269 49.24514404 -16.75402835 50.82877691 -14.6640625 52.58984375 C-13 54 -13 54 -12 56 C-9.59157615 55.60888843 -8.28176826 55.2758363 -6.515625 53.546875 C-6.09796875 52.95390625 -5.6803125 52.3609375 -5.25 51.75 C-4.82203125 51.16734375 -4.3940625 50.5846875 -3.953125 49.984375 C-2.71245704 47.40134499 -2.58405085 45.83721102 -3 43 C-4.53512669 40.71189336 -4.53512669 40.71189336 -6.6875 38.75 C-7.37199219 38.06421875 -8.05648437 37.3784375 -8.76171875 36.671875 C-11.22590097 34.83126419 -12.97566297 34.36016623 -16 34 C-16.21449236 29.49566044 -15.52698814 26.2216731 -14 22 C-13.63893903 20.33911955 -13.29537827 18.67381019 -13 17 C-12.67 17 -12.34 17 -12 17 C-12 20.3 -12 23.6 -12 27 C-10.02 25.68 -8.04 24.36 -6 23 C-6.495 20.525 -6.495 20.525 -7 18 C-4.29889598 16.64944799 -1.99210994 17 1 17 C1.66 16.67 2.32 16.34 3 16 C3.65772428 12.97065509 3.65772428 12.97065509 4 10 C2.02 8.68 0.04 7.36 -2 6 C-1.125 1.125 -1.125 1.125 0 0 Z " fill="#FAF1F1" transform="translate(108,24)"/>
<path d="M0 0 C0.99 0 1.98 0 3 0 C3.33 1.65 3.66 3.3 4 5 C4.99 5.33 5.98 5.66 7 6 C7 6.66 7 7.32 7 8 C7.99 8.33 8.98 8.66 10 9 C10.33 11.31 10.66 13.62 11 16 C12.00392976 9.474566 12.00392976 9.474566 11 3 C14 1 14 1 16.1875 1.375 C17.0846875 1.684375 17.0846875 1.684375 18 2 C18.495 4.475 18.495 4.475 19 7 C18.01 7.66 17.02 8.32 16 9 C14.79103537 13.87903584 14.54774572 19.15915241 16 24 C14.9275 24.721875 13.855 25.44375 12.75 26.1875 C8.42647082 29.30324167 5.46298008 31.95517133 4.25 37.3125 C4.1675 38.199375 4.085 39.08625 4 40 C3.67 40 3.34 40 3 40 C3 38.35 3 36.7 3 35 C2.01 35 1.02 35 0 35 C-0.625 32.6875 -0.625 32.6875 -1 30 C-0.34 29.01 0.32 28.02 1 27 C1.66 27 2.32 27 3 27 C3 26.34 3 25.68 3 25 C1.68 25.33 0.36 25.66 -1 26 C-1 25.34 -1 24.68 -1 24 C-1.73605469 24.07992187 -2.47210938 24.15984375 -3.23046875 24.2421875 C-6.8421205 23.926359 -7.8548846 22.72609201 -10.3125 20.125 C-11.00988281 19.40570313 -11.70726563 18.68640625 -12.42578125 17.9453125 C-14 16 -14 16 -14 14 C-12.02 13.67 -10.04 13.34 -8 13 C-9.65 12.67 -11.3 12.34 -13 12 C-9.60377358 8.10062893 -9.60377358 8.10062893 -6.375 7.5625 C-5.59125 7.376875 -4.8075 7.19125 -4 7 C-2.75285597 4.59047977 -2.75285597 4.59047977 -2 2 C-1.34 1.34 -0.68 0.68 0 0 Z " fill="#F6E8E7" transform="translate(113,41)"/>
<path d="M0 0 C2.31 0 4.62 0 7 0 C7.13371925 9.09211293 6.71867057 18.10169421 6.125 27.171875 C6.03498936 28.58959906 5.9453146 30.00734449 5.85595703 31.42510986 C5.6225528 35.11427313 5.38465934 38.80313294 5.14575195 42.49194336 C4.90168778 46.27309835 4.66197786 50.05452927 4.421875 53.8359375 C3.95211973 61.22423134 3.47761006 68.61220932 3 76 C1.68 76 0.36 76 -1 76 C-1.02574646 68.55168411 -1.04302951 61.10338003 -1.05493164 53.6550293 C-1.05990317 51.13093639 -1.06668274 48.60684628 -1.07543945 46.08276367 C-1.12743912 30.68780217 -0.92945667 15.36904279 0 0 Z " fill="#FAF1F2" transform="translate(101,118)"/>
<path d="M0 0 C17.82 0 35.64 0 54 0 C53 5 53 5 52 8 C47.30440175 9.19405743 42.7469549 9.14449327 37.9375 9.1328125 C37.06859131 9.13376923 36.19968262 9.13472595 35.30444336 9.13571167 C33.47216723 9.13639044 31.63988866 9.1345573 29.80761719 9.13037109 C27.00971046 9.12501858 24.21196426 9.13032636 21.4140625 9.13671875 C19.63020798 9.13605791 17.84635356 9.13477664 16.0625 9.1328125 C14.81231079 9.13584885 14.81231079 9.13584885 13.53686523 9.13894653 C5.48434507 9.10658343 5.48434507 9.10658343 2 8 C0.40339294 5.11090151 0 3.30941204 0 0 Z " fill="#FCF6F6" transform="translate(71,90)"/>
<path d="M0 0 C2.64 0 5.28 0 8 0 C8 25.08 8 50.16 8 76 C7.01 76 6.02 76 5 76 C3.81724921 72.17767318 3.71392462 68.31824927 3.53515625 64.3515625 C3.49755692 63.59425842 3.45995758 62.83695435 3.42121887 62.05670166 C3.34046392 60.42701978 3.26137283 58.79725478 3.18377686 57.16741943 C2.97910783 52.87678628 2.76169288 48.58681171 2.54296875 44.296875 C2.49895935 43.43146088 2.45494995 42.56604675 2.40960693 41.67440796 C1.91675686 32.13953441 1.27778848 22.61631063 0.60961914 13.09228516 C0.5296167 11.94550293 0.44961426 10.7987207 0.3671875 9.6171875 C0.29612793 8.62315918 0.22506836 7.62913086 0.15185547 6.60498047 C0.02369493 4.40647085 0 2.20224197 0 0 Z " fill="#FCF4F5" transform="translate(87,118)"/>
<path d="M0 0 C7.65955983 7.4525447 7.65955983 7.4525447 8.6875 12.125 C7.77732927 17.25505322 5.26432438 19.84154148 1.84765625 23.66796875 C-1.08668684 27.3715688 -1.12828959 30.38157492 -1 35 C-1.66 35 -2.32 35 -3 35 C-3.33 35.66 -3.66 36.32 -4 37 C-5.33918806 35.37982158 -6.6711969 33.75370657 -8 32.125 C-8.7425 31.22007813 -9.485 30.31515625 -10.25 29.3828125 C-12 27 -12 27 -12 25 C-13.65 24.67 -15.3 24.34 -17 24 C-17.33 22.35 -17.66 20.7 -18 19 C-17.01 18.67 -16.02 18.34 -15 18 C-15 16.02 -15 14.04 -15 12 C-14.34 12 -13.68 12 -13 12 C-13 10.35 -13 8.7 -13 7 C-10.13998967 8.28207359 -7.92960588 9.49151236 -6 12 C-6 13.32 -6 14.64 -6 16 C-3.525 16.99 -3.525 16.99 -1 18 C-1 17.34 -1 16.68 -1 16 C-0.34 16 0.32 16 1 16 C0.83628906 15.29488281 0.67257813 14.58976562 0.50390625 13.86328125 C-0.01699824 10.90341312 -0.09866732 8.18938727 -0.0625 5.1875 C-0.05347656 4.21167969 -0.04445313 3.23585937 -0.03515625 2.23046875 C-0.02355469 1.49441406 -0.01195313 0.75835937 0 0 Z " fill="#F7E7E6" transform="translate(83,42)"/>
<path d="M0 0 C-0.15339844 0.56847656 -0.30679688 1.13695312 -0.46484375 1.72265625 C-0.98474671 4.29639074 -1.2538096 6.37868771 -1 9 C0.56823731 11.24514404 2.24597165 12.82877691 4.3359375 14.58984375 C6 16 6 16 7 18 C9.49339211 17.61965205 10.68887729 17.369006 12.34375 15.40625 C12.7253125 14.7771875 13.106875 14.148125 13.5 13.5 C15.51265022 10.18184693 15.51265022 10.18184693 18.09375 9.21875 C18.7228125 9.1465625 19.351875 9.074375 20 9 C21 10 21 10 21.0625 13.5625 C21.041875 14.696875 21.02125 15.83125 21 17 C20.34 17 19.68 17 19 17 C19 17.66 19 18.32 19 19 C19.99 19.33 20.98 19.66 22 20 C21.06027344 20.14695312 21.06027344 20.14695312 20.1015625 20.296875 C19.28429687 20.44640625 18.46703125 20.5959375 17.625 20.75 C16.81289062 20.88921875 16.00078125 21.0284375 15.1640625 21.171875 C12.82290908 21.81749261 12.82290908 21.81749261 11.7109375 24.078125 C11.47632812 24.71234375 11.24171875 25.3465625 11 26 C8.5625 25.625 8.5625 25.625 6 25 C5.67 24.34 5.34 23.68 5 23 C3.04304865 22.56852029 3.04304865 22.56852029 0.75 22.4375 C-2.56286973 22.14161371 -5.74945701 21.73399358 -9 21 C-9 19.02 -9 17.04 -9 15 C-8.34 15 -7.68 15 -7 15 C-7.28875 14.01 -7.5775 13.02 -7.875 12 C-8.28888889 9.30144444 -8.10543044 8.19746743 -6.80078125 5.75390625 C-2.56483957 0 -2.56483957 0 0 0 Z " fill="#F8E9E9" transform="translate(89,62)"/>
<path d="M0 0 C12.21 0 24.42 0 37 0 C36.67 2.64 36.34 5.28 36 8 C24.78 8 13.56 8 2 8 C1.34 5.36 0.68 2.72 0 0 Z " fill="#F8F0F1" transform="translate(79,104)"/>
<path d="M0 0 C4.26024065 0.50734915 6.29708561 1.72890686 9.3125 4.75 C10.00988281 5.42546875 10.70726563 6.1009375 11.42578125 6.796875 C13 9 13 9 13.44921875 11.46484375 C12.87484216 14.70632554 11.60077572 16.2990719 9.5 18.8125 C8.8503125 19.60269531 8.200625 20.39289063 7.53125 21.20703125 C7.0259375 21.79871094 6.520625 22.39039062 6 23 C2.17723432 22.45991831 0.72563435 20.93135626 -1.6875 18 C-2.59048828 16.9171875 -2.59048828 16.9171875 -3.51171875 15.8125 C-4.00285156 15.214375 -4.49398437 14.61625 -5 14 C-5.33 13.67 -5.66 13.34 -6 13 C-6.5351509 9.78909458 -6.53124861 7.77441489 -4.66015625 5.046875 C-3.15676472 3.30647822 -1.62116183 1.63081161 0 0 Z " fill="#7E1626" transform="translate(93,58)"/>
<path d="M0 0 C1.65 0.33 3.3 0.66 5 1 C5.625 3.375 5.625 3.375 6 6 C4 8 4 8 1.5 8.75 C-1.22558878 9.80821024 -1.22558878 9.80821024 -2.375 12.625 C-3.14508446 16.78345608 -2.71658017 19.84383502 -2 24 C-1.01 24.33 -0.02 24.66 1 25 C2.0625 27.25 2.0625 27.25 3 30 C3.391875 30.845625 3.78375 31.69125 4.1875 32.5625 C5.10469411 35.31408232 5.22056276 36.38450838 4 39 C0.67857143 42 0.67857143 42 -2 42 C-2.33 40.35 -2.66 38.7 -3 37 C-3.33 37 -3.66 37 -4 37 C-4.33 34.69 -4.66 32.38 -5 30 C-6.65 29.67 -8.3 29.34 -10 29 C-9.67 28.34 -9.34 27.68 -9 27 C-8.01 27 -7.02 27 -6 27 C-6 24.03 -6 21.06 -6 18 C-6.99 18.33 -7.98 18.66 -9 19 C-9.625 15.625 -9.625 15.625 -10 12 C-8 10 -8 10 -6 9.5625 C-3.61359262 9.12541292 -3.61359262 9.12541292 -2 6 C-1.29835358 4.01200182 -0.62627128 2.01301483 0 0 Z " fill="#F2E0E0" transform="translate(98,9)"/>
<path d="M0 0 C5.57142857 5.14285714 5.57142857 5.14285714 6 9 C7.794375 8.938125 7.794375 8.938125 9.625 8.875 C13.42864634 8.875 16.47995178 9.45461298 20 11 C20.33 11.66 20.66 12.32 21 13 C24.59575604 12.60045155 24.59575604 12.60045155 27.375 10.5 C29.99652743 8.08012853 32.52059916 8.17691869 36 8 C39.375 8.8125 39.375 8.8125 42 10 C42.495 10.99 42.495 10.99 43 12 C42.01 12.33 41.02 12.66 40 13 C39.67 13.99 39.34 14.98 39 16 C35.13792926 16.90816798 31.56851344 17.11643845 27.60546875 17.09765625 C26.40341797 17.09443359 25.20136719 17.09121094 23.96289062 17.08789062 C22.71701172 17.07951172 21.47113281 17.07113281 20.1875 17.0625 C18.92228516 17.05798828 17.65707031 17.05347656 16.35351562 17.04882812 C13.2356289 17.03706251 10.11783867 17.02062272 7 17 C7 16.67 7 16.34 7 16 C10.3 15.67 13.6 15.34 17 15 C17 13.68 17 12.36 17 11 C15.453125 11.556875 15.453125 11.556875 13.875 12.125 C9.58112137 13.0945855 7.79743959 13.20781372 4 11 C2.8125 7.4375 2.8125 7.4375 2 4 C1.01 3.67 0.02 3.34 -1 3 C-0.67 2.01 -0.34 1.02 0 0 Z " fill="#7D1223" transform="translate(75,74)"/>
<path d="M0 0 C15.51 0 31.02 0 47 0 C47 0.33 47 0.66 47 1 C44.69 1.33 42.38 1.66 40 2 C39.67 2.99 39.34 3.98 39 5 C27.45 5 15.9 5 4 5 C4 4.01 4 3.02 4 2 C2.68 2 1.36 2 0 2 C0 1.34 0 0.68 0 0 Z " fill="#771928" transform="translate(75,99)"/>
<path d="M0 0 C1.67542976 0.28604898 3.34385343 0.61781233 5 1 C5.33 2.65 5.66 4.3 6 6 C5.360625 6.226875 4.72125 6.45375 4.0625 6.6875 C1.80221521 7.84567824 1.80221521 7.84567824 1.0625 10.3125 C0.98129839 13.80416922 1.89707266 15.24444004 4 18 C6.06954847 19.78344178 6.06954847 19.78344178 8 21 C8.33 20.01 8.66 19.02 9 18 C11.09749995 20.35968744 11.96905704 21.54616994 12.1875 24.75 C12.0946875 25.86375 12.0946875 25.86375 12 27 C11.34 27 10.68 27 10 27 C10 27.66 10 28.32 10 29 C7.625 28.3125 7.625 28.3125 5 27 C4.30341637 25.34561387 3.63903117 23.67745682 3 22 C0.48593689 19.70422757 0.48593689 19.70422757 -2 18 C-2 19.65 -2 21.3 -2 23 C-2.66 23 -3.32 23 -4 23 C-5.42258812 19.17679443 -6.24042276 16.08718695 -6 12 C-4.68 11.67 -3.36 11.34 -2 11 C-1.93941406 10.28972656 -1.87882812 9.57945313 -1.81640625 8.84765625 C-1.73261719 7.92855469 -1.64882812 7.00945313 -1.5625 6.0625 C-1.48128906 5.14597656 -1.40007812 4.22945312 -1.31640625 3.28515625 C-1 1 -1 1 0 0 Z " fill="#FBEEEE" transform="translate(72,31)"/>
<path d="M0 0 C7.92 0 15.84 0 24 0 C24 0.33 24 0.66 24 1 C22.02 1 20.04 1 18 1 C18.66 1.33 19.32 1.66 20 2 C20 2.66 20 3.32 20 4 C22.97 4.495 22.97 4.495 26 5 C26 6.65 26 8.3 26 10 C25.67 8.68 25.34 7.36 25 6 C22.69 6 20.38 6 18 6 C18 12.93 18 19.86 18 27 C17.67 27 17.34 27 17 27 C17 20.07 17 13.14 17 6 C16.34 6 15.68 6 15 6 C15 7.65 15 9.3 15 11 C14.67 11 14.34 11 14 11 C13.67 34.43 13.34 57.86 13 82 C12.67 82 12.34 82 12 82 C12 56.92 12 31.84 12 6 C9.36 6 6.72 6 4 6 C4 5.67 4 5.34 4 5 C6.64 5 9.28 5 12 5 C12 4.34 12 3.68 12 3 C12.99 2.67 13.98 2.34 15 2 C10.05 1.67 5.1 1.34 0 1 C0 0.67 0 0.34 0 0 Z " fill="#9B5560" transform="translate(83,112)"/>
<path d="M0 0 C1.67542976 0.28604898 3.34385343 0.61781233 5 1 C5.35807292 2.98567708 5.71614583 4.97135417 6.07421875 6.95703125 C7.08057251 9.69284955 7.08057251 9.69284955 12 12 C11.34 16.62 10.68 21.24 10 26 C8.11656068 22.23312136 7.77942165 20.97041037 8 17 C4.83282717 18.58358642 3.26731682 19.45263699 1.6875 22.6875 C1.460625 23.450625 1.23375 24.21375 1 25 C-0.65 25 -2.3 25 -4 25 C-2.68 24.67 -1.36 24.34 0 24 C0 22.35 0 20.7 0 19 C-1.32 18.67 -2.64 18.34 -4 18 C-1.69 17.34 0.62 16.68 3 16 C3.33 14.02 3.66 12.04 4 10 C2.02 8.68 0.04 7.36 -2 6 C-1.125 1.125 -1.125 1.125 0 0 Z " fill="#F7E5E7" transform="translate(108,24)"/>
<path d="M0 0 C0.99 0.33 1.98 0.66 3 1 C4 7.875 4 7.875 4 9 C5.65 9.33 7.3 9.66 9 10 C8.2575 10.556875 7.515 11.11375 6.75 11.6875 C1.96101638 15.71459986 -0.41074356 18.66549331 -1 25 C-1.33 25 -1.66 25 -2 25 C-2 23.35 -2 21.7 -2 20 C-2.99 20 -3.98 20 -5 20 C-5.625 17.6875 -5.625 17.6875 -6 15 C-5.34 14.01 -4.68 13.02 -4 12 C-3.34 12 -2.68 12 -2 12 C-2 11.34 -2 10.68 -2 10 C-2.99 9.67 -3.98 9.34 -5 9 C-3.35 6.03 -1.7 3.06 0 0 Z " fill="#F2D7DA" transform="translate(118,56)"/>
<path d="M0 0 C0.33 0 0.66 0 1 0 C1 3.3 1 6.6 1 10 C2.98 8.68 4.96 7.36 7 6 C6.67 4.35 6.34 2.7 6 1 C8.62113708 1 10.50935112 1.31292445 13 2 C13 3.65 13 5.3 13 7 C11.68 7 10.36 7 9 7 C9 7.66 9 8.32 9 9 C8.01 9.66 7.02 10.32 6 11 C8.31 11.33 10.62 11.66 13 12 C9.3558226 14.4294516 7.28758728 14.16179575 3 14 C3 14.99 3 15.98 3 17 C1.02 17 -0.96 17 -3 17 C-3.21449236 12.49566044 -2.52698814 9.2216731 -1 5 C-0.63893903 3.33911955 -0.29537827 1.67381019 0 0 Z " fill="#FDF5F4" transform="translate(95,41)"/>
<path d="M0 0 C7.79284572 7.78009147 7.79284572 7.78009147 8.5625 12.3125 C7.81083771 17.24006388 5.48039683 19.59211144 2 23 C0 21 0 21 -0.22705078 18.84521484 C-0.21657715 17.97590332 -0.20610352 17.1065918 -0.1953125 16.2109375 C-0.18886719 15.26992188 -0.18242188 14.32890625 -0.17578125 13.359375 C-0.15902344 12.37453125 -0.14226562 11.3896875 -0.125 10.375 C-0.11597656 9.38242187 -0.10695313 8.38984375 -0.09765625 7.3671875 C-0.07404116 4.91121866 -0.04110799 2.45572832 0 0 Z " fill="#7D182A" transform="translate(83,42)"/>
<path d="M0 0 C-1.25805377 4.50802601 -2.90407165 7.4912812 -6 11 C-9.56764821 10.42380903 -11.25159497 9.13030516 -13.75 6.5625 C-14.36359375 5.94503906 -14.9771875 5.32757813 -15.609375 4.69140625 C-17 3 -17 3 -17 1 C-11.30494264 0.3583034 -5.73266804 -0.12462322 0 0 Z " fill="#771A29" transform="translate(116,54)"/>
<path d="M0 0 C5.57142857 5.14285714 5.57142857 5.14285714 6 9 C7.794375 8.938125 7.794375 8.938125 9.625 8.875 C13.42864634 8.875 16.47995178 9.45461298 20 11 C20.33 11.66 20.66 12.32 21 13 C22.65 13 24.3 13 26 13 C26 13.66 26 14.32 26 15 C28.64 15.33 31.28 15.66 34 16 C34 16.33 34 16.66 34 17 C25.09 17 16.18 17 7 17 C7 16.67 7 16.34 7 16 C10.3 15.67 13.6 15.34 17 15 C17 13.68 17 12.36 17 11 C15.453125 11.556875 15.453125 11.556875 13.875 12.125 C9.58112137 13.0945855 7.79743959 13.20781372 4 11 C2.8125 7.4375 2.8125 7.4375 2 4 C1.01 3.67 0.02 3.34 -1 3 C-0.67 2.01 -0.34 1.02 0 0 Z " fill="#924B55" transform="translate(75,74)"/>
<path d="M0 0 C1.65 0.33 3.3 0.66 5 1 C4.01 1.66 3.02 2.32 2 3 C1.77892213 5.7885289 1.71892465 8.34653181 1.8125 11.125 C1.82603516 11.87910156 1.83957031 12.63320313 1.85351562 13.41015625 C1.88890015 15.27374127 1.94270833 17.13695978 2 19 C-3.11769481 16.50974026 -3.11769481 16.50974026 -5 14 C-5.8125 11 -5.8125 11 -6 8 C-4 5 -4 5 -1 4 C-0.26676204 1.98491642 -0.26676204 1.98491642 0 0 Z " fill="#791928" transform="translate(78,33)"/>
<path d="M0 0 C-0.254496 1.48206495 -0.52911762 2.96068615 -0.8125 4.4375 C-0.96332031 5.26121094 -1.11414063 6.08492188 -1.26953125 6.93359375 C-1.63111328 7.95646484 -1.63111328 7.95646484 -2 9 C-2.99 9.33 -3.98 9.66 -5 10 C-5 11.65 -5 13.3 -5 15 C-4.34 15 -3.68 15 -3 15 C-2.375 17.375 -2.375 17.375 -2 20 C-2.66 20.66 -3.32 21.32 -4 22 C-6.625 21.625 -6.625 21.625 -9 21 C-9 19.02 -9 17.04 -9 15 C-8.34 15 -7.68 15 -7 15 C-7.28875 14.01 -7.5775 13.02 -7.875 12 C-8.28888889 9.30144444 -8.10543044 8.19746743 -6.80078125 5.75390625 C-2.56483957 0 -2.56483957 0 0 0 Z " fill="#FAEFEE" transform="translate(89,62)"/>
<path d="M0 0 C0.99 0 1.98 0 3 0 C3.19491452 1.45736087 3.38069358 2.91594593 3.5625 4.375 C3.66691406 5.18710937 3.77132812 5.99921875 3.87890625 6.8359375 C4 9 4 9 3 11 C0.28553021 11.31241455 -2.33909361 11.51336592 -5.0625 11.625 C-5.82111328 11.66367187 -6.57972656 11.70234375 -7.36132812 11.7421875 C-9.24047195 11.83673562 -11.12020336 11.91946756 -13 12 C-9.328125 8.0546875 -9.328125 8.0546875 -6.375 7.5625 C-5.59125 7.376875 -4.8075 7.19125 -4 7 C-2.75285597 4.59047977 -2.75285597 4.59047977 -2 2 C-1.34 1.34 -0.68 0.68 0 0 Z " fill="#751A29" transform="translate(113,41)"/>
<path d="M0 0 C0.33 0 0.66 0 1 0 C1 25.08 1 50.16 1 76 C2.32 76.33 3.64 76.66 5 77 C2 79 2 79 -1 79 C-1.33 78.01 -1.66 77.02 -2 76 C-1.34 76 -0.68 76 0 76 C0 50.92 0 25.84 0 0 Z " fill="#711827" transform="translate(99,118)"/>
<path d="M0 0 C3.85829052 1.33044501 6.42259618 3.90711541 9 7 C8.8125 9.3125 8.8125 9.3125 8 11 C5.125 10.75 5.125 10.75 2 10 C0.625 7.9375 0.625 7.9375 0 6 C-0.66 6 -1.32 6 -2 6 C-2 4.35 -2 2.7 -2 1 C-1.34 0.67 -0.68 0.34 0 0 Z " fill="#EED1D4" transform="translate(86,71)"/>
<path d="M0 0 C0.598125 0.20625 1.19625 0.4125 1.8125 0.625 C2.1425 2.275 2.4725 3.925 2.8125 5.625 C1.8225 6.285 0.8325 6.945 -0.1875 7.625 C-0.76498803 9.58861864 -0.76498803 9.58861864 -0.875 11.75 C-1.0296875 13.668125 -1.0296875 13.668125 -1.1875 15.625 C-2.1775 15.295 -3.1675 14.965 -4.1875 14.625 C-4.166875 13.408125 -4.14625 12.19125 -4.125 10.9375 C-4.11925884 7.70522678 -4.39983685 4.77565259 -5.1875 1.625 C-2.1875 -0.375 -2.1875 -0.375 0 0 Z " fill="#F0D8DB" transform="translate(129.1875,42.375)"/>
<path d="M0 0 C4.26024065 0.50734915 6.29708561 1.72890686 9.3125 4.75 C10.00988281 5.42546875 10.70726563 6.1009375 11.42578125 6.796875 C13.30137181 9.42177096 13.32556416 10.84368304 13 14 C12.01 14.495 12.01 14.495 11 15 C11 13.68 11 12.36 11 11 C10.34 10.67 9.68 10.34 9 10 C9 9.01 9 8.02 9 7 C8.34 7 7.68 7 7 7 C7 6.34 7 5.68 7 5 C5.63875 5.309375 5.63875 5.309375 4.25 5.625 C0.88972103 6.0127245 -0.24075815 5.80411967 -3 4 C-2.01 2.68 -1.02 1.36 0 0 Z " fill="#7A1D2E" transform="translate(93,58)"/>
<path d="M0 0 C2.64 0 5.28 0 8 0 C8 3.63 8 7.26 8 11 C2.19794344 5.35475578 2.19794344 5.35475578 0 2 C0 1.34 0 0.68 0 0 Z " fill="#792132" transform="translate(86,39)"/>
<path d="M0 0 C1.65 0.33 3.3 0.66 5 1 C5.625 3.375 5.625 3.375 6 6 C3.6226839 8.3773161 2.29714793 8.67028521 -1 9 C-1.66 8.34 -2.32 7.68 -3 7 C-2.01 4.69 -1.02 2.38 0 0 Z " fill="#EDCED2" transform="translate(98,9)"/>
<path d="M0 0 C5 2.5 5 2.5 7 5 C7 5.99 7 6.98 7 8 C2.77777778 11 2.77777778 11 0 11 C0 7.37 0 3.74 0 0 Z " fill="#873F4B" transform="translate(70,49)"/>
<path d="M0 0 C2.09749995 2.35968744 2.96905704 3.54616994 3.1875 6.75 C3.125625 7.4925 3.06375 8.235 3 9 C2.34 9 1.68 9 1 9 C1 9.66 1 10.32 1 11 C-1.475 10.01 -1.475 10.01 -4 9 C-4 7.02 -4 5.04 -4 3 C-3.01 3 -2.02 3 -1 3 C-0.67 2.01 -0.34 1.02 0 0 Z " fill="#FCF4F5" transform="translate(81,49)"/>
<path d="M0 0 C0.33 0 0.66 0 1 0 C2.47075246 4.41225737 3.36884358 7.48281619 2 12 C0.02 12 -1.96 12 -4 12 C-4.33 11.34 -4.66 10.68 -5 10 C-4.00390625 7.6171875 -4.00390625 7.6171875 -2.5625 4.875 C-1.85287109 3.50988281 -1.85287109 3.50988281 -1.12890625 2.1171875 C-0.75636719 1.41851562 -0.38382812 0.71984375 0 0 Z " fill="#FEF7F7" transform="translate(126,54)"/>
<path d="M0 0 C0.99 0.33 1.98 0.66 3 1 C3.33 2.98 3.66 4.96 4 7 C-0.455 8.485 -0.455 8.485 -5 10 C-3.35 6.7 -1.7 3.4 0 0 Z " fill="#7A2734" transform="translate(118,56)"/>
<path d="M0 0 C-0.66 1.98 -1.32 3.96 -2 6 C-2.33 6 -2.66 6 -3 6 C-3 4.35 -3 2.7 -3 1 C-4.31722179 1.42307123 -5.62872664 1.86397486 -6.9375 2.3125 C-7.66839844 2.55613281 -8.39929688 2.79976562 -9.15234375 3.05078125 C-11.35932024 3.91240441 -11.35932024 3.91240441 -12 7 C-13.7074998 5.71937515 -15.37373596 4.38232443 -17 3 C-17 2.34 -17 1.68 -17 1 C-11.30494264 0.3583034 -5.73266804 -0.12462322 0 0 Z " fill="#7A2A37" transform="translate(116,54)"/>
<path d="M0 0 C2.97 1.98 2.97 1.98 6 4 C5.8125 5.8125 5.8125 5.8125 5 8 C2.4375 9.75 2.4375 9.75 0 11 C0 7.37 0 3.74 0 0 Z " fill="#782432" transform="translate(97,40)"/>
<path d="M0 0 C1.65 0.33 3.3 0.66 5 1 C5 2.98 5 4.96 5 7 C2.36 6.67 -0.28 6.34 -3 6 C-3 5.34 -3 4.68 -3 4 C-2.34 4 -1.68 4 -1 4 C-0.67 2.68 -0.34 1.36 0 0 Z " fill="#FDF7F7" transform="translate(111,75)"/>
<path d="M0 0 C0.66 0 1.32 0 2 0 C3.125 6.75 3.125 6.75 2 9 C0.02 9 -1.96 9 -4 9 C-2.80100302 5.9168649 -1.52299523 2.93720508 0 0 Z " fill="#7D2B3A" transform="translate(90,27)"/>
<path d="M0 0 C5 5 5 5 7.125 7.1875 C9.07041718 9.17656226 9.07041718 9.17656226 12 11 C9.7734375 11.73046875 9.7734375 11.73046875 7 12 C4.7265625 10.48828125 4.7265625 10.48828125 2.625 8.3125 C1.91601562 7.60738281 1.20703125 6.90226562 0.4765625 6.17578125 C-1 4 -1 4 -0.7265625 1.73046875 C-0.48679687 1.15941406 -0.24703125 0.58835938 0 0 Z " fill="#F1D5D7" transform="translate(98,55)"/>
<path d="M0 0 C0.33 0 0.66 0 1 0 C0.67 2.31 0.34 4.62 0 7 C1.98 7 3.96 7 6 7 C6 7.33 6 7.66 6 8 C-1.92 8.495 -1.92 8.495 -10 9 C-5.5 4.5 -5.5 4.5 -1 4 C-0.67 2.68 -0.34 1.36 0 0 Z " fill="#8A434E" transform="translate(110,44)"/>
<path d="M0 0 C0.66 0 1.32 0 2 0 C1.77139942 1.46184058 1.51629608 2.91955419 1.25 4.375 C1.04117188 5.59316406 1.04117188 5.59316406 0.828125 6.8359375 C0 9 0 9 -2.078125 10.2890625 C-3.02945313 10.64097656 -3.02945313 10.64097656 -4 11 C-4 10.34 -4 9.68 -4 9 C-4.66 8.67 -5.32 8.34 -6 8 C-5.04956626 6.66102417 -4.08940853 5.32894573 -3.125 4 C-2.59132813 3.2575 -2.05765625 2.515 -1.5078125 1.75 C-1.01023437 1.1725 -0.51265625 0.595 0 0 Z " fill="#FEF5F6" transform="translate(87,62)"/>
<path d="M0 0 C0.598125 0.20625 1.19625 0.4125 1.8125 0.625 C1.8125 2.605 1.8125 4.585 1.8125 6.625 C-0.4975 5.965 -2.8075 5.305 -5.1875 4.625 C-5.1875 3.635 -5.1875 2.645 -5.1875 1.625 C-2.1875 -0.375 -2.1875 -0.375 0 0 Z " fill="#781D2D" transform="translate(79.1875,59.375)"/>
<path d="M0 0 C0 4.38968456 -2.12805101 5.76905739 -5 9 C-5.99 8.67 -6.98 8.34 -8 8 C-7.9375 5.6875 -7.9375 5.6875 -7 3 C-3.4375 1.1875 -3.4375 1.1875 0 0 Z " fill="#7C303D" transform="translate(120,66)"/>
<path d="M0 0 C0 0.99 0 1.98 0 3 C-3 4 -3 4 -6 3 C-6 4.32 -6 5.64 -6 7 C-2.37 7 1.26 7 5 7 C5 7.33 5 7.66 5 8 C0.38 8 -4.24 8 -9 8 C-7 2 -7 2 -4.5 0.625 C-2 0 -2 0 0 0 Z " fill="#721728" transform="translate(109,82)"/>
<path d="M0 0 C1.2065625 0.0309375 1.2065625 0.0309375 2.4375 0.0625 C2.1075 2.7025 1.7775 5.3425 1.4375 8.0625 C0.1175 8.0625 -1.2025 8.0625 -2.5625 8.0625 C-2.94313221 5.7364143 -3.27519945 3.40194736 -3.5625 1.0625 C-2.5625 0.0625 -2.5625 0.0625 0 0 Z " fill="#FDF6F7" transform="translate(91.5625,19.9375)"/>
<path d="M0 0 C6.57209302 1.46046512 6.57209302 1.46046512 8.4375 3.8125 C9.07442486 6.28943001 9.14152557 8.45253973 9 11 C5.36440339 7.56638098 2.63886654 4.2026393 0 0 Z " fill="#792E3B" transform="translate(73,66)"/>
<path d="M0 0 C0.66 0 1.32 0 2 0 C2.33 0.66 2.66 1.32 3 2 C3.66 1.67 4.32 1.34 5 1 C7.23551759 4.35327639 7.17283528 4.90743657 6.625 8.6875 C6.51414062 9.49574219 6.40328125 10.30398437 6.2890625 11.13671875 C6.19367188 11.75160156 6.09828125 12.36648437 6 13 C5.34 12.67 4.68 12.34 4 12 C3.855625 10.88625 3.71125 9.7725 3.5625 8.625 C2.99077913 4.94057661 2.71745398 4.24485329 0 2 C0 1.34 0 0.68 0 0 Z " fill="#772934" transform="translate(119,45)"/>
<path d="M0 0 C0.66 0 1.32 0 2 0 C2 1.98 2 3.96 2 6 C-0.64 6.99 -3.28 7.98 -6 9 C-4.4722133 5.56247993 -2.49818944 2.81046312 0 0 Z " fill="#803441" transform="translate(108,73)"/>
<path d="M0 0 C0.66 0.33 1.32 0.66 2 1 C1.39294514 5.12797305 0.06000669 8.37438822 -2 12 C-2.99 12.495 -2.99 12.495 -4 13 C-4 12.34 -4 11.68 -4 11 C-4.66 10.67 -5.32 10.34 -6 10 C-4.02 6.7 -2.04 3.4 0 0 Z " fill="#F2DADD" transform="translate(116,54)"/>
<path d="M0 0 C-0.13277344 0.72445313 -0.26554687 1.44890625 -0.40234375 2.1953125 C-1.30281709 7.12491105 -2.19781966 12.05322123 -3 17 C-4.53508028 14.56661348 -5.03088304 13.32875493 -4.7578125 10.421875 C-4.44457031 9.09929688 -4.44457031 9.09929688 -4.125 7.75 C-3.92132813 6.85796875 -3.71765625 5.9659375 -3.5078125 5.046875 C-3.34023437 4.37140625 -3.17265625 3.6959375 -3 3 C-4.32 2.67 -5.64 2.34 -7 2 C-2.25 0 -2.25 0 0 0 Z " fill="#FBE3E6" transform="translate(97,17)"/>
<path d="M0 0 C1.12894876 0.93274109 2.25300876 1.87140122 3.375 2.8125 C4.00148438 3.33457031 4.62796875 3.85664062 5.2734375 4.39453125 C7 6 7 6 9 9 C3.53164557 8.51392405 3.53164557 8.51392405 1.125 6.1875 C0 4 0 4 0 0 Z " fill="#7C3443" transform="translate(85,73)"/>
<path d="M0 0 C0.99 0.66 1.98 1.32 3 2 C1.68 3.65 0.36 5.3 -1 7 C-2.32 6.67 -3.64 6.34 -5 6 C-4.67 4.68 -4.34 3.36 -4 2 C-2.68 2 -1.36 2 0 2 C0 1.34 0 0.68 0 0 Z " fill="#7E2635" transform="translate(100,74)"/>
<path d="M0 0 C0.99 0.33 1.98 0.66 3 1 C2.67 1.66 2.34 2.32 2 3 C2.061875 4.11375 2.12375 5.2275 2.1875 6.375 C2 10 2 10 0 12.4375 C-0.99 13.2109375 -0.99 13.2109375 -2 14 C-2.66 13.34 -3.32 12.68 -4 12 C-3.505 11.67 -3.01 11.34 -2.5 11 C-0.13468936 7.84625248 -0.87480701 4.88098259 -1 1 C-0.67 0.67 -0.34 0.34 0 0 Z " fill="#ECCDD0" transform="translate(91,49)"/>
<path d="M0 0 C1.65 0.33 3.3 0.66 5 1 C4.01 1.66 3.02 2.32 2 3 C1.67 3.680625 1.34 4.36125 1 5.0625 C0 7 0 7 -3 8 C-3.33 8.99 -3.66 9.98 -4 11 C-4.66 11 -5.32 11 -6 11 C-5.75 8.625 -5.75 8.625 -5 6 C-3.68352881 5.30062468 -2.34977849 4.63270867 -1 4 C-0.19471111 1.94999129 -0.19471111 1.94999129 0 0 Z " fill="#7E333F" transform="translate(78,33)"/>
<path d="M0 0 C-0.33 1.65 -0.66 3.3 -1 5 C-1.99 5.33 -2.98 5.66 -4 6 C-4.66 5.34 -5.32 4.68 -6 4 C-5.67 3.34 -5.34 2.68 -5 2 C-5.66 1.67 -6.32 1.34 -7 1 C-4 0 -4 0 0 0 Z " fill="#801123" transform="translate(110,56)"/>
<path d="M0 0 C1.65 0.33 3.3 0.66 5 1 C2.03 4.96 2.03 4.96 -1 9 C-1.66 7.68 -2.32 6.36 -3 5 C-1.68 4.67 -0.36 4.34 1 4 C0.67 2.68 0.34 1.36 0 0 Z " fill="#7F2E3A" transform="translate(86,56)"/>
<path d="M0 0 C6.86214442 5.0940919 6.86214442 5.0940919 7.4375 8.875 C7.293125 9.57625 7.14875 10.2775 7 11 C6.01 11.495 6.01 11.495 5 12 C5 10.68 5 9.36 5 8 C4.34 7.67 3.68 7.34 3 7 C3 6.01 3 5.02 3 4 C2.34 4 1.68 4 1 4 C0.67 2.68 0.34 1.36 0 0 Z " fill="#7C2B36" transform="translate(99,61)"/>
<path d="M0 0 C0.309375 0.639375 0.61875 1.27875 0.9375 1.9375 C1.8345163 3.93610821 1.8345163 3.93610821 3 5 C3.07226502 6.85287502 3.0838122 8.70833878 3.0625 10.5625 C3.05347656 11.57441406 3.04445313 12.58632813 3.03515625 13.62890625 C3.02355469 14.41136719 3.01195313 15.19382812 3 16 C2.67 16 2.34 16 2 16 C1.8046875 13.94921875 1.609375 11.8984375 1.4140625 9.84765625 C1.20910156 8.93306641 1.20910156 8.93306641 1 8 C0.34 7.67 -0.32 7.34 -1 7 C-0.67 4.69 -0.34 2.38 0 0 Z " fill="#8E3A48" transform="translate(65,44)"/>
<path d="M0 0 C0.66 0 1.32 0 2 0 C2 0.66 2 1.32 2 2 C2.66 2 3.32 2 4 2 C4.33 1.34 4.66 0.68 5 0 C5 1.98 5 3.96 5 6 C3.35 5.67 1.7 5.34 0 5 C0 3.35 0 1.7 0 0 Z " fill="#741724" transform="translate(86,51)"/>
<path d="M0 0 C4.92307692 4.18461538 4.92307692 4.18461538 5.3125 8.3125 C5.209375 9.199375 5.10625 10.08625 5 11 C2.64046906 8.64046906 2.50858587 7.22104383 2 4 C1.01 3.67 0.02 3.34 -1 3 C-0.67 2.01 -0.34 1.02 0 0 Z " fill="#82323D" transform="translate(75,74)"/>
<path d="M0 0 C1.32 0.99 2.64 1.98 4 3 C3.67 4.32 3.34 5.64 3 7 C2.01 7 1.02 7 0 7 C0 4.69 0 2.38 0 0 Z " fill="#791B2E" transform="translate(71,49)"/>
<path d="M0 0 C0.99 0.33 1.98 0.66 3 1 C2.34 1.66 1.68 2.32 1 3 C1 3.99 1 4.98 1 6 C0.34 6 -0.32 6 -1 6 C-1 6.99 -1 7.98 -1 9 C-1.66 8.67 -2.32 8.34 -3 8 C-1.125 1.125 -1.125 1.125 0 0 Z " fill="#832735" transform="translate(113,41)"/>
<path d="M0 0 C2.64752004 2.57784846 4.94432065 4.91648098 7 8 C6.030625 7.67 5.06125 7.34 4.0625 7 C1.37850426 5.94826637 1.37850426 5.94826637 0 6 C0 4.02 0 2.04 0 0 Z " fill="#7D3944" transform="translate(83,42)"/>
<path d="M0 0 C0 0.99 0 1.98 0 3 C-3 4 -3 4 -6 3 C-6 3.66 -6 4.32 -6 5 C-6.66 4.67 -7.32 4.34 -8 4 C-5.57415142 1.34311822 -3.76063134 0 0 0 Z " fill="#7B2936" transform="translate(109,82)"/>
<path d="M0 0 C0.33 0 0.66 0 1 0 C1 1.98 1 3.96 1 6 C-1.31 5.34 -3.62 4.68 -6 4 C-5.38125 3.896875 -4.7625 3.79375 -4.125 3.6875 C-1.63473516 3.12474627 -1.63473516 3.12474627 0 0 Z " fill="#813A45" transform="translate(80,60)"/>
<path d="M0 0 C1.65 1.65 3.3 3.3 5 5 C4.34 5.66 3.68 6.32 3 7 C1.68 5.35 0.36 3.7 -1 2 C-0.67 1.34 -0.34 0.68 0 0 Z " fill="#F0D5D4" transform="translate(73,47)"/>
<path d="M0 0 C0.33 0 0.66 0 1 0 C1 1.65 1 3.3 1 5 C2.32 5.33 3.64 5.66 5 6 C2 8 2 8 -1 8 C-1.33 7.01 -1.66 6.02 -2 5 C-1.34 5 -0.68 5 0 5 C0 3.35 0 1.7 0 0 Z " fill="#7C222E" transform="translate(99,189)"/>
<path d="M0 0 C0.33 1.32 0.66 2.64 1 4 C2.32 4 3.64 4 5 4 C5 4.66 5 5.32 5 6 C3.02 6 1.04 6 -1 6 C-1.33 5.34 -1.66 4.68 -2 4 C-1.34 4 -0.68 4 0 4 C0 2.68 0 1.36 0 0 Z " fill="#812838" transform="translate(91,190)"/>
<path d="M0 0 C0.66 0.33 1.32 0.66 2 1 C2 2.32 2 3.64 2 5 C0.68 5 -0.64 5 -2 5 C-2 3.68 -2 2.36 -2 1 C-1.34 0.67 -0.68 0.34 0 0 Z " fill="#FBFCF9" transform="translate(100,11)"/>
</svg>
